<svg width="40" height="40" viewBox="0 0 40 40" fill="none" xmlns="http://www.w3.org/2000/svg">
<path d="M38 24.51C32.281 26.8225 26.1688 28.0075 20 28C13.634 28 7.56 26.76 2 24.51M20 22H20.02M28 10V6C28 4.93913 27.5786 3.92172 26.8284 3.17157C26.0783 2.42143 25.0609 2 24 2H16C14.9391 2 13.9217 2.42143 13.1716 3.17157C12.4214 3.92172 12 4.93913 12 6V10H28ZM6 38H34C35.0609 38 36.0783 37.5786 36.8284 36.8284C37.5786 36.0783 38 35.0609 38 34V14C38 12.9391 37.5786 11.9217 36.8284 11.1716C36.0783 10.4214 35.0609 10 34 10H6C4.93913 10 3.92172 10.4214 3.17157 11.1716C2.42143 11.9217 2 12.9391 2 14V34C2 35.0609 2.42143 36.0783 3.17157 36.8284C3.92172 37.5786 4.93913 38 6 38Z" stroke="#007AFF" stroke-width="3" stroke-linecap="round" stroke-linejoin="round"/>
</svg>
