<svg width="40" height="32" viewBox="0 0 40 32" fill="none" xmlns="http://www.w3.org/2000/svg">
<path d="M30 10V6C30 4.93913 29.5786 3.92172 28.8284 3.17157C28.0783 2.42143 27.0609 2 26 2H6C4.93913 2 3.92172 2.42143 3.17157 3.17157C2.42143 3.92172 2 4.93913 2 6V18C2 19.0609 2.42143 20.0783 3.17157 20.8284C3.92172 21.5786 4.93913 22 6 22H10M14 30H34C35.0609 30 36.0783 29.5786 36.8284 28.8284C37.5786 28.0783 38 27.0609 38 26V14C38 12.9391 37.5786 11.9217 36.8284 11.1716C36.0783 10.4214 35.0609 10 34 10H14C12.9391 10 11.9217 10.4214 11.1716 11.1716C10.4214 11.9217 10 12.9391 10 14V26C10 27.0609 10.4214 28.0783 11.1716 28.8284C11.9217 29.5786 12.9391 30 14 30ZM28 20C28 21.0609 27.5786 22.0783 26.8284 22.8284C26.0783 23.5786 25.0609 24 24 24C22.9391 24 21.9217 23.5786 21.1716 22.8284C20.4214 22.0783 20 21.0609 20 20C20 18.9391 20.4214 17.9217 21.1716 17.1716C21.9217 16.4214 22.9391 16 24 16C25.0609 16 26.0783 16.4214 26.8284 17.1716C27.5786 17.9217 28 18.9391 28 20Z" stroke="#007AFF" stroke-width="3" stroke-linecap="round" stroke-linejoin="round"/>
</svg>
