<svg width="38" height="30" viewBox="0 0 38 30" fill="none" xmlns="http://www.w3.org/2000/svg">
<path fill-rule="evenodd" clip-rule="evenodd" d="M19.0001 3.33333C18.116 3.33333 17.2682 3.68452 16.6431 4.30964C16.0179 4.93477 15.6667 5.78261 15.6667 6.66667C15.6667 7.55072 16.0179 8.39857 16.6431 9.02369C17.2682 9.64881 18.116 10 19.0001 10C19.8841 10 20.732 9.64881 21.3571 9.02369C21.9822 8.39857 22.3334 7.55072 22.3334 6.66667C22.3334 5.78261 21.9822 4.93477 21.3571 4.30964C20.732 3.68452 19.8841 3.33333 19.0001 3.33333ZM14.286 1.95262C15.5363 0.702379 17.232 0 19.0001 0C20.7682 0 22.4639 0.702379 23.7141 1.95262C24.9644 3.20286 25.6667 4.89856 25.6667 6.66667C25.6667 8.43478 24.9644 10.1305 23.7141 11.3807C22.4639 12.631 20.7682 13.3333 19.0001 13.3333C17.232 13.3333 15.5363 12.631 14.286 11.3807C13.0358 10.1305 12.3334 8.43478 12.3334 6.66667C12.3334 4.89856 13.0358 3.20286 14.286 1.95262ZM7.33342 10C6.89139 10 6.46746 10.1756 6.1549 10.4882C5.84234 10.8007 5.66675 11.2246 5.66675 11.6667C5.66675 12.1087 5.84234 12.5326 6.1549 12.8452C6.46746 13.1577 6.89139 13.3333 7.33342 13.3333C7.77544 13.3333 8.19936 13.1577 8.51193 12.8452C8.82449 12.5326 9.00008 12.1087 9.00008 11.6667C9.00008 11.2246 8.82449 10.8007 8.51193 10.4882C8.19936 10.1756 7.77544 10 7.33342 10ZM3.79788 8.13113C4.73556 7.19345 6.00733 6.66667 7.33342 6.66667C8.6595 6.66667 9.93127 7.19345 10.8689 8.13113C11.8066 9.06882 12.3334 10.3406 12.3334 11.6667C12.3334 12.9928 11.8066 14.2645 10.8689 15.2022C9.93127 16.1399 8.6595 16.6667 7.33342 16.6667C6.00733 16.6667 4.73556 16.1399 3.79788 15.2022C2.8602 14.2645 2.33341 12.9928 2.33341 11.6667C2.33341 10.3406 2.8602 9.06882 3.79788 8.13113ZM30.6667 10C30.2247 10 29.8008 10.1756 29.4882 10.4882C29.1757 10.8007 29.0001 11.2246 29.0001 11.6667C29.0001 12.1087 29.1757 12.5326 29.4882 12.8452C29.8008 13.1577 30.2247 13.3333 30.6667 13.3333C31.1088 13.3333 31.5327 13.1577 31.8453 12.8452C32.1578 12.5326 32.3334 12.1087 32.3334 11.6667C32.3334 11.2246 32.1578 10.8007 31.8453 10.4882C31.5327 10.1756 31.1088 10 30.6667 10ZM27.1312 8.13113C28.0689 7.19345 29.3407 6.66667 30.6667 6.66667C31.9928 6.66667 33.2646 7.19345 34.2023 8.13113C35.14 9.06882 35.6667 10.3406 35.6667 11.6667C35.6667 12.9928 35.14 14.2645 34.2023 15.2022C33.2646 16.1399 31.9928 16.6667 30.6667 16.6667C29.3407 16.6667 28.0689 16.1399 27.1312 15.2022C26.1935 14.2645 25.6667 12.9928 25.6667 11.6667C25.6667 10.3406 26.1935 9.06882 27.1312 8.13113ZM19.0001 18.3322C17.6672 18.3322 16.3648 18.7315 15.261 19.4787C14.2205 20.1831 13.4015 21.1661 12.8962 22.3131L12.4943 26.6667H25.5058L25.104 22.3131C24.5987 21.1661 23.7796 20.1831 22.7391 19.4787C21.6353 18.7315 20.333 18.3322 19.0001 18.3322ZM29.0001 26.6667H34.0001V25.0001C34.0001 25.0001 34.0001 25.0002 34.0001 25.0001C34 24.3074 33.7841 23.6318 33.3825 23.0675C32.9808 22.5031 32.4132 22.0779 31.7587 21.851C31.1042 21.624 30.3952 21.6067 29.7304 21.8013C29.3358 21.9168 28.9683 22.1035 28.6452 22.35C28.877 23.1958 29.0001 24.085 29.0001 25V26.6667ZM27.2164 19.2961C26.5167 18.2887 25.634 17.4131 24.6077 16.7184C22.9523 15.5978 20.9991 14.9988 19.0001 14.9988C17.0011 14.9988 15.0479 15.5978 13.3925 16.7184C12.3661 17.4131 11.4834 18.2887 10.7838 19.2961C10.293 18.9992 9.76312 18.7652 9.20617 18.6021C7.87647 18.2129 6.45856 18.2477 5.14953 18.7016C3.84049 19.1554 2.70539 20.0058 1.902 21.1346C1.09861 22.2634 0.666849 23.6144 0.666748 24.9999V28.3333C0.666748 29.2538 1.41294 30 2.33341 30H35.6667C36.5872 30 37.3334 29.2538 37.3334 28.3333V25C37.3333 23.6145 36.9016 22.2634 36.0982 21.1346C35.2948 20.0058 34.1597 19.1554 32.8506 18.7016C31.5416 18.2477 30.1237 18.2129 28.794 18.6021C28.237 18.7652 27.7072 18.9992 27.2164 19.2961ZM9.35499 22.35C9.03182 22.1035 8.6644 21.9168 8.26979 21.8013C7.60495 21.6067 6.89599 21.624 6.24147 21.851C5.58696 22.0779 5.0194 22.5031 4.61771 23.0675C4.21603 23.6318 4.00016 24.3073 4.00008 25C4.00008 25 4.00008 25 4.00008 25V26.6667H9.00008V25C9.00008 24.085 9.12314 23.1958 9.35499 22.35Z" fill="#007AFF"/>
</svg>
