<svg width="40" height="40" viewBox="0 0 40 40" fill="none" xmlns="http://www.w3.org/2000/svg">
<path d="M15.5 30L14 36L12 38H28L26 36L24.5 30H15.5ZM2 22H38H2ZM6 30H34C35.0609 30 36.0783 29.5786 36.8284 28.8284C37.5786 28.0783 38 27.0609 38 26V6C38 4.93913 37.5786 3.92172 36.8284 3.17157C36.0783 2.42143 35.0609 2 34 2H6C4.93913 2 3.92172 2.42143 3.17157 3.17157C2.42143 3.92172 2 4.93913 2 6V26C2 27.0609 2.42143 28.0783 3.17157 28.8284C3.92172 29.5786 4.93913 30 6 30Z" stroke="#007AFF" stroke-width="3" stroke-linecap="round" stroke-linejoin="round"/>
</svg>
